<svg width="56" height="12" viewBox="0 0 56 12" fill="none" xmlns="http://www.w3.org/2000/svg">
<path d="M9.42614 4C9.0483 1.91193 7.37784 0.678977 5.32955 0.678977C2.72443 0.678977 0.835227 2.6875 0.835227 5.90909C0.835227 9.13068 2.72443 11.1392 5.32955 11.1392C7.37784 11.1392 9.0483 9.90625 9.42614 7.81818H8.19318C7.89489 9.23011 6.68182 9.9858 5.32955 9.9858C3.48011 9.9858 2.02841 8.55398 2.02841 5.90909C2.02841 3.2642 3.48011 1.83239 5.32955 1.83239C6.68182 1.83239 7.89489 2.58807 8.19318 4H9.42614ZM14.3617 11.1591C16.4299 11.1591 17.8219 9.58807 17.8219 7.22159C17.8219 4.83523 16.4299 3.2642 14.3617 3.2642C12.2935 3.2642 10.9015 4.83523 10.9015 7.22159C10.9015 9.58807 12.2935 11.1591 14.3617 11.1591ZM14.3617 10.1051C12.7907 10.1051 12.0748 8.75284 12.0748 7.22159C12.0748 5.69034 12.7907 4.31818 14.3617 4.31818C15.9327 4.31818 16.6486 5.69034 16.6486 7.22159C16.6486 8.75284 15.9327 10.1051 14.3617 10.1051ZM20.7862 6.40625C20.7862 5.07386 21.6115 4.31818 22.7351 4.31818C23.8239 4.31818 24.4851 5.02912 24.4851 6.22727V11H25.6584V6.14773C25.6584 4.19886 24.6193 3.2642 23.0732 3.2642C21.9197 3.2642 21.2038 3.78125 20.8459 4.55682H20.7464V3.36364H19.6129V11H20.7862V6.40625ZM31.1234 3.36364H29.4927V1.53409H28.3194V3.36364H27.166V4.35795H28.3194V9.13068C28.3194 10.4631 29.3933 11.0994 30.3876 11.0994C30.8251 11.0994 31.1035 11.0199 31.2626 10.9602L31.024 9.90625C30.9245 9.92614 30.7654 9.96591 30.5069 9.96591C29.9899 9.96591 29.4927 9.80682 29.4927 8.8125V4.35795H31.1234V3.36364ZM35.1355 11.179C36.4679 11.179 37.1639 10.4631 37.4025 9.96591H37.4622V11H38.6355V5.96875C38.6355 3.54261 36.786 3.2642 35.8116 3.2642C34.6582 3.2642 33.3457 3.66193 32.7491 5.05398L33.8627 5.4517C34.1213 4.89489 34.7328 4.2983 35.8514 4.2983C36.9302 4.2983 37.4622 4.87003 37.4622 5.84943V5.8892C37.4622 6.45597 36.8855 6.40625 35.4934 6.58523C34.0765 6.76918 32.5304 7.08239 32.5304 8.83239C32.5304 10.3239 33.6838 11.179 35.1355 11.179ZM35.3145 10.125C34.3798 10.125 33.7037 9.70739 33.7037 8.89205C33.7037 7.99716 34.519 7.71875 35.4338 7.59943C35.9309 7.53977 37.2633 7.40057 37.4622 7.16193V8.2358C37.4622 9.19034 36.7065 10.125 35.3145 10.125ZM43.8793 11.1591C45.5696 11.1591 46.6832 10.125 46.8821 8.77273H45.7088C45.4901 9.60795 44.794 10.1051 43.8793 10.1051C42.4872 10.1051 41.5923 8.9517 41.5923 7.18182C41.5923 5.4517 42.5071 4.31818 43.8793 4.31818C44.9134 4.31818 45.5298 4.95455 45.7088 5.65057H46.8821C46.6832 4.21875 45.4702 3.2642 43.8594 3.2642C41.7912 3.2642 40.419 4.89489 40.419 7.22159C40.419 9.50852 41.7315 11.1591 43.8793 11.1591ZM51.9183 3.36364H50.2876V1.53409H49.1143V3.36364H47.9609V4.35795H49.1143V9.13068C49.1143 10.4631 50.1882 11.0994 51.1825 11.0994C51.62 11.0994 51.8984 11.0199 52.0575 10.9602L51.8189 9.90625C51.7195 9.92614 51.5604 9.96591 51.3018 9.96591C50.7848 9.96591 50.2876 9.80682 50.2876 8.8125V4.35795H51.9183V3.36364ZM54.5384 11.0795C55.0305 11.0795 55.4332 10.6768 55.4332 10.1847C55.4332 9.69247 55.0305 9.28977 54.5384 9.28977C54.0462 9.28977 53.6435 9.69247 53.6435 10.1847C53.6435 10.6768 54.0462 11.0795 54.5384 11.0795ZM54.5384 5.41193C55.0305 5.41193 55.4332 5.00923 55.4332 4.51705C55.4332 4.02486 55.0305 3.62216 54.5384 3.62216C54.0462 3.62216 53.6435 4.02486 53.6435 4.51705C53.6435 5.00923 54.0462 5.41193 54.5384 5.41193Z" fill="#636270"/>
</svg>
